<svg width="256" height="256" viewBox="0 0 256 256" xmlns="http://www.w3.org/2000/svg" role="img" aria-labelledby="title desc">
  <title id="title">Mwein Medical Services Favicon</title>
  <desc id="desc">A fresh cross and leaf symbol representing life and a clean clinic environment.</desc>
  <defs>
    <linearGradient id="bgGradient" x1="0%" y1="0%" x2="100%" y2="100%">
      <stop offset="0%" stop-color="#0ea5e9" />
      <stop offset="100%" stop-color="#22c55e" />
    </linearGradient>
    <filter id="shadow" x="-20%" y="-20%" width="140%" height="140%" filterUnits="objectBoundingBox">
      <feDropShadow dx="0" dy="4" stdDeviation="6" flood-color="rgba(15, 23, 42, 0.28)" />
    </filter>
  </defs>
  <g filter="url(#shadow)">
    <rect x="24" y="24" width="208" height="208" rx="72" fill="url(#bgGradient)" />
  </g>
  <path d="M142 78h-28c-7.732 0-14 6.268-14 14v24H76c-7.732 0-14 6.268-14 14v28c0 7.732 6.268 14 14 14h24v24c0 7.732 6.268 14 14 14h28c7.732 0 14-6.268 14-14v-24h24c7.732 0 14-6.268 14-14v-28c0-7.732-6.268-14-14-14h-24V92c0-7.732-6.268-14-14-14z" fill="#f8fafc" />
  <path d="M184 120c-24 2-44.5 16.3-54.5 38.5-3.6 7.9-5.5 16.3-5.5 24.7 0 3.8 0.4 7.5 1.1 11.1 20.2-5.1 37.5-18.8 47.9-37.6 4.7-8.6 8-17.9 10-27.6 0.6-3 1-6 1-9.1z" fill="#bbf7d0" />
  <path d="M135.6 194.5c17.4-4.7 32.4-17 41.2-33.7 6.6-12.3 8.8-24.5 7.2-36.2-28.3 8.3-48.6 30.5-54 57.8-0.5 2.6-0.8 5.2-0.9 7.8 2 1.8 4.4 3.1 6.5 4.3z" fill="#15803d" opacity="0.65" />
</svg>
